<?xml version="1.0" encoding="iso-8859-1"?>
<!-- Generator: Adobe Illustrator 16.0.0, SVG Export Plug-In . SVG Version: 6.00 Build 0)  -->
<!DOCTYPE svg PUBLIC "-//W3C//DTD SVG 1.1//EN" "http://www.w3.org/Graphics/SVG/1.1/DTD/svg11.dtd">
<svg version="1.1" id="Capa_1" xmlns="http://www.w3.org/2000/svg" xmlns:xlink="http://www.w3.org/1999/xlink" x="0px" y="0px"
	 width="611.987px" height="611.987px" viewBox="0 0 611.987 611.987" style="enable-background:new 0 0 611.987 611.987;"
	 xml:space="preserve">
<g>
	<g id="arrow-R">
		<g>
			<path d="M604.652,287.018c-0.532-0.532-1.225-0.692-1.757-1.171L417.717,100.668c-10.329-10.329-27.074-10.329-37.377,0
				c-10.328,10.329-10.328,27.074,0,37.376l141.334,141.333H26.622C11.926,279.377,0,291.304,0,306
				c0,14.694,11.926,26.621,26.622,26.621h495.052L380.341,473.954c-10.329,10.329-10.329,27.074,0,37.376
				c10.329,10.303,27.073,10.329,37.376,0l185.232-185.258c0.532-0.453,1.197-0.612,1.703-1.092c0.825-0.825,0.825-1.97,1.518-2.875
				c2.263-2.796,3.86-5.856,4.818-9.158c0.346-1.277,0.586-2.396,0.719-3.7C612.799,301.34,610.749,293.087,604.652,287.018z"/>
		</g>
	</g>
</g>
<g>
</g>
<g>
</g>
<g>
</g>
<g>
</g>
<g>
</g>
<g>
</g>
<g>
</g>
<g>
</g>
<g>
</g>
<g>
</g>
<g>
</g>
<g>
</g>
<g>
</g>
<g>
</g>
<g>
</g>
</svg>
