<?xml version="1.0" encoding="iso-8859-1"?>
<!-- Generator: Adobe Illustrator 18.1.1, SVG Export Plug-In . SVG Version: 6.00 Build 0)  -->
<svg version="1.1" id="Capa_1" xmlns="http://www.w3.org/2000/svg" xmlns:xlink="http://www.w3.org/1999/xlink" x="0px" y="0px"
	 viewBox="0 0 430.192 430.192" style="enable-background:new 0 0 430.192 430.192;" xml:space="preserve">
<g>
	<g>
		<path style="fill:#030104;" d="M345.415,301.641h-20.272v-58.715c0-2.403-1.948-4.354-4.354-4.354h-42.03
			c-2.406,0-4.354,1.951-4.354,4.354v58.715H254.13c-1.763,0-3.351,1.06-4.022,2.688c-0.675,1.627-0.302,3.5,0.942,4.746
			l45.646,45.643c0.817,0.818,1.927,1.275,3.08,1.275c1.155,0,2.265-0.457,3.082-1.275l45.644-45.643
			c1.246-1.246,1.619-3.119,0.942-4.746C348.765,302.7,347.179,301.641,345.415,301.641z"/>
		<path style="fill:#030104;" d="M396.706,210.127c-21.056-23.39-49.625-38.345-80.609-42.234c-1.066-2.063-2.75-5.074-3.217-5.885
			l-1.243-2.21c4.802-7.346,7.231-14.976,7.231-22.706V92.043c0-6.655-1.843-13.343-5.434-19.794l-0.381-0.74
			c1.378-3.479,2.05-6.759,2.05-9.99c0-18.263-17.517-33.648-50.653-44.493C236.225,7.79,197.95,2.492,159.432,2.492
			c-38.525,0-76.809,5.298-105.03,14.535C21.265,27.873,3.749,43.262,3.749,61.533c0,3.216,0.672,6.492,2.051,9.977l-0.356,0.665
			C1.831,78.725,0,85.41,0,92.044v45.049c0,7.769,2.43,15.386,7.229,22.672l-1.268,2.217C2.006,168.847,0,175.848,0,182.791v45.057
			c0,7.565,2.306,15.009,6.858,22.147l-0.897,1.556C2.006,258.415,0,265.407,0,272.329v45.086c0,20.594,16.714,39.563,47.063,53.418
			c29.611,13.517,69.52,20.959,112.372,20.959c15.734,0,31.619-1.099,47.242-3.267c24.756,25.273,57.755,39.175,93.095,39.175
			c71.914,0,130.42-58.505,130.42-130.418C430.191,265.066,418.3,234.113,396.706,210.127z M60.841,38.576
			c25.964-8.614,60.979-13.358,98.594-13.358c37.599,0,72.61,4.747,98.588,13.366c23.715,7.869,34.329,17.197,34.329,22.95
			c0,5.772-10.614,15.123-34.331,22.998c-25.965,8.622-60.977,13.37-98.586,13.37c-37.619,0-72.634-4.748-98.593-13.37
			c-23.706-7.873-34.316-17.225-34.316-22.998C26.525,55.775,37.135,46.442,60.841,38.576z M22.76,105.64
			c25.851,17.886,78.278,29.229,136.675,29.229c58.354,0,110.793-11.348,136.696-29.238v31.482
			c0,11.605-13.886,24.415-37.146,34.264c-26.484,11.216-61.84,17.393-99.553,17.393c-37.71,0-73.061-6.177-99.54-17.392
			c-23.253-9.849-37.135-22.658-37.135-34.265L22.76,105.64L22.76,105.64z M159.434,369.01c-37.701,0-73.053-6.174-99.541-17.386
			c-23.252-9.84-37.134-22.631-37.134-34.211v-35.94c27.988,21.765,79.421,35.091,136.675,35.091c3.862,0,7.633-0.185,11.293-0.383
			c2.663,18.215,9.262,35.825,19.231,51.372C179.81,368.521,169.566,369.01,159.434,369.01z M170.634,279.051
			c-3.623,0.218-7.356,0.421-11.2,0.421c-37.706,0-73.057-6.175-99.54-17.389c-23.252-9.846-37.135-22.646-37.135-34.236v-35.963
			c27.928,21.775,79.359,35.111,136.675,35.111c10.017,0,20.409-0.534,31.597-1.627
			C180.325,241.517,173.329,259.908,170.634,279.051z M299.771,395.837c-54.342,0-98.553-44.213-98.553-98.555
			s44.211-98.554,98.553-98.554c54.347,0,98.558,44.212,98.558,98.554S354.116,395.837,299.771,395.837z"/>
	</g>
</g>
<g>
</g>
<g>
</g>
<g>
</g>
<g>
</g>
<g>
</g>
<g>
</g>
<g>
</g>
<g>
</g>
<g>
</g>
<g>
</g>
<g>
</g>
<g>
</g>
<g>
</g>
<g>
</g>
<g>
</g>
</svg>
