<?xml version="1.0" encoding="utf-8"?>
<!-- Generator: Adobe Illustrator 16.0.0, SVG Export Plug-In . SVG Version: 6.00 Build 0)  -->
<!DOCTYPE svg PUBLIC "-//W3C//DTD SVG 1.1//EN" "http://www.w3.org/Graphics/SVG/1.1/DTD/svg11.dtd">
<svg version="1.1" id="Capa_1" xmlns="http://www.w3.org/2000/svg" xmlns:xlink="http://www.w3.org/1999/xlink" x="0px" y="0px"
	 width="512px" height="512px" viewBox="0 0 512 512" enable-background="new 0 0 512 512" xml:space="preserve">
<g>
	<path d="M343.758,280.75c-0.816-0.818-1.926-1.275-3.08-1.275s-2.264,0.457-3.082,1.275l-45.643,45.643
		c-1.246,1.246-1.619,3.119-0.942,4.746c0.676,1.629,2.262,2.688,4.024,2.688h20.273v58.715c0,2.403,1.947,4.354,4.354,4.354h42.031
		c2.406,0,4.354-1.951,4.354-4.354v-58.714h20.277c1.762,0,3.35-1.061,4.021-2.688c0.676-1.627,0.303-3.5-0.941-4.746
		L343.758,280.75z"/>
	<path d="M437.611,251.031c-21.055-23.39-49.625-38.345-80.609-42.233c-1.065-2.063-2.75-5.076-3.217-5.886l-1.242-2.21
		c4.802-7.346,7.23-14.977,7.23-22.706v-45.049c0-6.655-1.842-13.343-5.434-19.794l-0.381-0.74c1.379-3.479,2.051-6.759,2.051-9.989
		c0-18.264-17.518-33.649-50.654-44.494c-28.225-9.236-66.5-14.534-105.017-14.534c-38.525,0-76.809,5.298-105.03,14.535
		c-33.139,10.847-50.654,26.235-50.654,44.506c0,3.216,0.672,6.492,2.051,9.977l-0.356,0.665c-3.613,6.55-5.444,13.235-5.444,19.869
		v45.049c0,7.769,2.43,15.386,7.229,22.672l-1.269,2.218c-3.955,6.864-5.961,13.865-5.961,20.807v45.058
		c0,7.564,2.306,15.01,6.858,22.146l-0.897,1.557c-3.955,6.863-5.961,13.855-5.961,20.777v45.086
		c0,20.595,16.714,39.564,47.063,53.419c29.61,13.517,69.519,20.959,112.371,20.959c15.734,0,31.619-1.099,47.242-3.267
		c24.755,25.273,57.755,39.174,93.095,39.174c71.914,0,130.42-58.504,130.42-130.418
		C471.096,305.969,459.205,275.016,437.611,251.031z M101.747,79.48c25.964-8.614,60.979-13.358,98.594-13.358
		c37.599,0,72.611,4.747,98.588,13.366c23.715,7.869,34.329,17.197,34.329,22.95c0,5.772-10.614,15.123-34.332,22.998
		c-25.965,8.622-60.976,13.37-98.585,13.37c-37.619,0-72.634-4.748-98.593-13.37c-23.706-7.873-34.316-17.225-34.316-22.998
		C67.43,96.678,78.041,87.345,101.747,79.48z M63.665,146.543L63.665,146.543c25.852,17.885,78.279,29.229,136.676,29.229
		c58.354,0,110.792-11.346,136.697-29.237v31.481c0,11.606-13.887,24.416-37.146,34.265c-26.484,11.215-61.839,17.393-99.552,17.393
		c-37.71,0-73.061-6.178-99.54-17.393c-23.253-9.85-37.135-22.658-37.135-34.266L63.665,146.543L63.665,146.543z M200.338,409.913
		c-37.701,0-73.053-6.174-99.541-17.386c-23.252-9.84-37.134-22.631-37.134-34.211v-35.94
		c27.988,21.765,79.421,35.091,136.675,35.091c3.862,0,7.633-0.185,11.293-0.383c2.663,18.215,9.262,35.825,19.231,51.372
		C220.714,409.424,210.471,409.913,200.338,409.913z M211.54,319.954c-3.623,0.218-7.356,0.421-11.2,0.421
		c-37.706,0-73.057-6.175-99.54-17.389c-23.252-9.846-37.135-22.645-37.135-34.236v-35.963
		c27.929,21.775,79.359,35.111,136.675,35.111c10.017,0,20.409-0.534,31.597-1.627C221.23,282.42,214.234,300.811,211.54,319.954z
		 M340.676,436.741c-54.342,0-98.553-44.213-98.553-98.556c0-54.342,44.211-98.552,98.553-98.552
		c54.346,0,98.557,44.21,98.557,98.552C439.232,392.528,395.021,436.741,340.676,436.741z"/>
</g>
</svg>
